{"title":"Kill.Command.(2016).1080p[)(]DD+ 5.1-(FR,US).mkv","uid":14729416,"size":8274317547,"categoryP":"video","categoryS":"hd___movies","magnet":"?xt=urn:btih:3da9f06095e8178d14819665bae3f495297fa93f&amp;dn=Kill.Command.%282016%29.1080p%5B%29%28%5DDD%2B+5.1-%28FR%2CUS%29.mkv&amp;tr=udp%3A%2F%2Ftracker.leechers-paradise.org%3A6969&amp;tr=udp%3A%2F%2Fzer0day.ch%3A1337&amp;tr=udp%3A%2F%2Fopen.demonii.com%3A1337&amp;tr=udp%3A%2F%2Ftracker.coppersurfer.tk%3A6969&amp;tr=udp%3A%2F%2Fexodus.desync.com%3A6969","seeders":0,"leechers":1,"uploader":"Tyr3ll","files":1,"time":1464580069,"description":"Kill.Command.(2016).1080p[)(]DD+ 5.1-(FR,US).mkv\r\n1h 39min | Action, Horror, Sci-Fi\r\n\r\nSee imdb right here : \nhttp://www.imdb.com/title/tt2667380/\r\n\r\nGeneral Purpose :\r\nBDRip @ Copy by Master dubbing\r\n\r\nParticularity :\r\nSpecial Dolby Digital Plus edition\r\n\r\nLanguage : US and FR\r\n\r\nSubs : same\r\n\r\nQuality : quite fine\r\n\r\nFinal size : 7,7 GB as matching BD9 size...\r\n\r\n----------------------------------------------------------\r\n\r\nSee the rest for complete details :\r\n\r\n\r\nGeneral\r\n\r\nComplete name                  : Kill.Command.(2016).1080p[)(]DD+ 5.1-(FR,US).mkv\r\nFormat                         : Matroska\r\nFormat version                 : Version 4 / Version 2\r\nFile size                      : 7.71 GiB\r\nDuration                       : 1h 39mn\r\nOverall bit rate               : 11.1 Mbps\r\nEncoded date                   : UTC 2016-05-30 00:21:46\r\nWriting application            : Lavf57.36.100\r\nWriting library                : Lavf57.36.100 / Lavf57.36.100\r\n\r\nVideo\r\nID                             : 1\r\nFormat                         : H.263\r\nCodec ID                       : V_MS/VFW/FOURCC / H263\r\nDuration                       : 1h 39mn\r\nBit rate                       : 9 327 Kbps\r\nWidth                          : 1 920 pixels\r\nHeight                         : 800 pixels\r\nDisplay aspect ratio           : 2.40:1\r\nFrame rate mode                : Constant\r\nFrame rate                     : 24.000 fps\r\nBit depth                      : 8 bits\r\nCompression mode               : Lossy\r\nBits/(Pixel*Frame)             : 0.253\r\nStream size                    : 6.48 GiB (84%)\r\nWriting library                : Lavc57.42.100 h263p\r\nLanguage                       : English\r\nDefault                        : Yes\r\nForced                         : No\r\nDURATION                       : 01:39:32.047000000\r\n\r\nAudio #1\r\nID                             : 2\r\nFormat                         : E-AC-3\r\nFormat/Info                    : Audio Coding 3\r\nFormat settings, Endianness    : Big\r\nCodec ID                       : A_EAC3\r\nDuration                       : 1h 39mn\r\nBit rate mode                  : Constant\r\nBit rate                       : 768 Kbps\r\nChannel(s)                     : 6 channels\r\nChannel positions              : Front: L C R, Side: L R, LFE\r\nSampling rate                  : 48.0 KHz\r\nFrame rate                     : 187.500 fps (256 spf)\r\nBit depth                      : 32 bits\r\nCompression mode               : Lossy\r\nStream size                    : 547 MiB (7%)\r\nWriting library                : Lavc57.42.100 eac3\r\nLanguage                       : French\r\nDefault                        : Yes\r\nForced                         : No\r\nDURATION                       : 01:39:32.000000000\r\n\r\nAudio #2\r\nID                             : 3\r\nFormat                         : E-AC-3\r\nFormat/Info                    : Audio Coding 3\r\nFormat settings, Endianness    : Big\r\nCodec ID                       : A_EAC3\r\nDuration                       : 1h 39mn\r\nBit rate mode                  : Constant\r\nBit rate                       : 768 Kbps\r\nChannel(s)                     : 6 channels\r\nChannel positions              : Front: L C R, Side: L R, LFE\r\nSampling rate                  : 48.0 KHz\r\nFrame rate                     : 187.500 fps (256 spf)\r\nBit depth                      : 32 bits\r\nCompression mode               : Lossy\r\nStream size                    : 547 MiB (7%)\r\nWriting library                : Lavc57.42.100 eac3\r\nLanguage                       : English\r\nDefault                        : No\r\nForced                         : No\r\nDURATION                       : 01:39:32.000000000\r\n\r\nText #1\r\nID                             : 4\r\nFormat                         : UTF-8\r\nCodec ID                       : S_TEXT/UTF8\r\nCodec ID/Info                  : UTF-8 Plain Text\r\nLanguage                       : French\r\nDefault                        : No\r\nForced                         : No\r\nDURATION                       : 01:39:14.298000000\r\n\r\nText #2\r\nID                             : 5\r\nFormat                         : UTF-8\r\nCodec ID                       : S_TEXT/UTF8\r\nCodec ID/Info                  : UTF-8 Plain Text\r\nLanguage                       : English\r\nDefault                        : No\r\nForced                         : No\r\nDURATION                       : 01:32:23.809000000\r\n\r\n\r\n\r\nEnjoy and seed, please, as long as you can.\r\n\r\nTy and best regards","torrent":{"xt":"urn:btih:3da9f06095e8178d14819665bae3f495297fa93f","amp;dn":"Kill.Command.%282016%29.1080p%5B%29%28%5DDD%2B+5.1-%28FR%2CUS%29.mkv","amp;tr":["udp%3A%2F%2Ftracker.leechers-paradise.org%3A6969","udp%3A%2F%2Fzer0day.ch%3A1337","udp%3A%2F%2Fopen.demonii.com%3A1337","udp%3A%2F%2Ftracker.coppersurfer.tk%3A6969","udp%3A%2F%2Fexodus.desync.com%3A6969"],"infoHash":"3da9f06095e8178d14819665bae3f495297fa93f","infoHashBuffer":{"type":"Buffer","data":[61,169,240,96,149,232,23,141,20,129,150,101,186,227,244,149,41,127,169,63]},"announce":[],"urlList":[]}}